<svg xmlns="http://www.w3.org/2000/svg" viewBox="0 0 531.013 369.4">
  <defs>
    <style>
      .cls-1 {
        fill: #fff;
      }
    </style>
  </defs>
  <path id="Image_placeholder" data-name="Image placeholder" class="cls-1" d="M0,952.4v369.4H531.012V952.4H0Zm34.631,34.631h461.75v232.607l-91.2-99.854c-3.463-4.04-8.658-5.771-13.853-5.771-4.04.576-8.658,2.308-11.544,5.195l-78.5,83.115L185.854,1073.61A16.157,16.157,0,0,0,172,1067.838a16.6,16.6,0,0,0-11.544,5.195L34.631,1208.094Zm271.278,11.544c-28.282,0-51.947,23.665-51.947,51.947s23.665,51.947,51.947,51.947,51.947-23.665,51.947-51.947S334.192,998.575,305.909,998.575Zm0,34.631a17.316,17.316,0,1,1-17.316,17.316A17.007,17.007,0,0,1,305.909,1033.206Zm-133.33,77.343,157.572,176.619H34.631v-27.7Zm219.908,46.175,103.894,113.706v16.161H376.9l-52.524-58.873Z" transform="translate(0 -952.4)"/>
</svg>
